<?xml version="1.0" encoding="UTF-8" standalone="no"?>
<!-- Created with Inkscape (http://www.inkscape.org/) -->

<svg
   width="112.65716mm"
   height="80.722504mm"
   viewBox="0 0 112.65716 80.722504"
   version="1.1"
   id="svg1"
   xmlns="http://www.w3.org/2000/svg"
   xmlns:svg="http://www.w3.org/2000/svg">
  <defs
     id="defs1" />
  <g
     id="layer1"
     transform="translate(-33.200192,-85.83558)">
    <path
       style="fill:#8bd7f1;fill-rule:evenodd;stroke:#e698d3;stroke-width:3.2;stroke-linecap:round;stroke-linejoin:round;stroke-dasharray:none;stroke-opacity:1"
       id="path9"
       d="m 34.800129,96.985882 c 3.574926,4.351358 0.859304,0.989553 4.350459,5.466838 0.321099,0.4118 2.104949,2.83233 2.919492,3.42051 0.213651,0.15428 0.505132,0.15045 0.757696,0.22567 0,0 0.02236,-0.0768 0.02236,-0.0768 v 0 c -0.241012,-0.0683 -0.520044,-0.0582 -0.723035,-0.20499 -0.815557,-0.5898 -2.591186,-3.00033 -2.913131,-3.41321 -3.492635,-4.479159 -0.777097,-1.11748 -4.353335,-5.470367 z" />
    <path
       style="fill:#8bd7f1;fill-rule:evenodd;stroke:#ffe27f;stroke-width:3.2;stroke-linecap:round;stroke-linejoin:round;stroke-dasharray:none;stroke-opacity:1"
       id="path10"
       d="m 59.929421,91.091347 c 1.076237,2.819299 2.084919,5.674624 3.468155,8.363855 0.233363,0.453694 0.502026,0.888598 0.768999,1.323368 0.483444,0.78728 0.349586,0.33755 0.460883,0.78435 -0.04223,-0.0325 -0.08446,-0.065 -0.126691,-0.0975 0,0 -0.02135,0.0771 -0.02135,0.0771 v 0 c 0.07514,0 0.150292,1e-5 0.225436,2e-5 -0.130966,-0.4764 0.02254,-0.004 -0.469091,-0.80422 -0.265885,-0.43284 -0.533527,-0.865781 -0.765902,-1.317493 -1.382551,-2.687545 -2.390272,-5.541309 -3.465986,-8.358855 z" />
    <path
       style="fill:#8bd7f1;fill-rule:evenodd;stroke:#83ff5e;stroke-width:3.2;stroke-linecap:round;stroke-linejoin:round;stroke-dasharray:none;stroke-opacity:1"
       id="path11"
       d="m 86.399178,87.437149 c 0.04033,2.883602 0.133742,5.768949 0.09931,8.653227 -0.01315,1.102101 -0.113139,2.171248 -0.166987,3.266469 0.266362,-0.108426 0.132049,-0.01802 0.348539,-0.338314 0,0 -0.06639,-0.04466 -0.06639,-0.04466 v 0 c -0.197744,0.295465 -0.150648,0.157776 -0.202221,0.386903 0.0538,-1.09668 0.153908,-2.167081 0.167082,-3.270663 0.03444,-2.884712 -0.05899,-5.770499 -0.09932,-8.654534 z" />
    <path
       style="fill:#8bd7f1;fill-rule:evenodd;stroke:#ffa876;stroke-width:3.2;stroke-linecap:round;stroke-linejoin:round;stroke-dasharray:none;stroke-opacity:1"
       id="path12"
       d="m 115.88882,91.813437 c -0.70291,2.512505 -1.59104,4.964409 -2.49996,7.407513 -0.33677,0.9052 -0.67957,1.7552 -0.87074,2.69764 -0.16853,0.51326 -0.0743,0.29964 -0.25273,0.65324 0,0 0.0715,0.0359 0.0715,0.0359 v 0 c 0.18386,-0.36763 0.0876,-0.14719 0.25965,-0.67328 0.18955,-0.93826 0.53212,-1.78464 0.86731,-2.685638 0.90967,-2.445171 1.79851,-4.899157 2.50201,-7.413778 z" />
    <path
       style="fill:#8bd7f1;fill-rule:evenodd;stroke:#7bcaff;stroke-width:3.2;stroke-linecap:round;stroke-linejoin:round;stroke-dasharray:none;stroke-opacity:1"
       id="path13"
       d="m 144.19005,97.295596 c -0.4514,0.693327 -0.90296,1.386546 -1.3542,2.079979 -1.48823,2.287035 -3.00236,4.526805 -4.83647,6.557505 -0.80975,0.89654 -0.76309,0.85078 -0.58407,0.4522 0,0 -0.0799,-0.004 -0.0799,-0.004 v 0 c 0.12685,0.50406 0.0238,0.37964 0.72511,-0.39693 0.50345,-0.55745 0.99118,-1.12986 1.45519,-1.72054 1.73422,-2.20765 3.22659,-4.566613 4.7417,-6.925363 z" />
    <path
       style="fill:#8bd7f1;fill-rule:evenodd;stroke:#706767;stroke-width:3.16611;stroke-linecap:round;stroke-linejoin:round;stroke-dasharray:none;stroke-opacity:1"
       id="path14"
       d="m 41.669323,148.61447 c -1.634638,1.83412 -3.126101,3.75219 -4.327283,5.78038 -0.720302,1.21621 -1.203601,2.50152 -1.813271,3.75069 -0.214862,0.24411 -0.429723,0.48821 -0.644586,0.73231 0,0 0.07436,0.0392 0.07436,0.0392 v 0 c 0.218119,-0.24895 0.436237,-0.4979 0.654352,-0.74687 0.608471,-1.24688 1.090701,-2.53011 1.80955,-3.74411 1.198756,-2.02447 2.687379,-3.93895 4.318776,-5.76973 z" />
    <path
       style="fill:#8bd7f1;fill-rule:evenodd;stroke:#e698d3;stroke-width:3.2;stroke-linecap:round;stroke-linejoin:round;stroke-dasharray:none;stroke-opacity:0.87451"
       id="path16"
       d="m 65.671075,152.75427 c -0.959705,2.85556 -2.143115,5.62831 -3.195574,8.44899 -0.277964,0.74497 -0.942729,2.19928 -0.806151,3.17605 0.01916,0.13691 0.201739,0.18906 0.302612,0.28358 0,0 0.05234,-0.0605 0.05234,-0.0605 v 0 c -0.520179,-0.40851 -0.460965,-0.23797 -0.177998,-1.35215 0.175347,-0.69044 0.454715,-1.35047 0.703746,-2.01788 1.052902,-2.82183 2.236767,-5.59574 3.196839,-8.45248 z" />
    <path
       style="fill:#8bd7f1;fill-rule:evenodd;stroke:#fffe65;stroke-width:3.2;stroke-linecap:round;stroke-linejoin:round;stroke-dasharray:none;stroke-opacity:1"
       id="path17"
       d="m 85.135142,154.55395 c -0.0074,2.76009 -0.103531,5.52033 -0.09029,8.28055 0.0024,0.48677 0.0046,0.97412 0.03613,1.45987 0.04653,0.71709 -0.08599,0.69369 0.279844,0.5781 0,0 -0.04631,-0.0653 -0.04631,-0.0653 v 0 c -0.138099,0.27692 -0.103296,0.26029 -0.15354,-0.51482 -0.03143,-0.48488 -0.03378,-0.97136 -0.03611,-1.45726 -0.004,-0.82758 0.04757,-4.7603 0.05417,-5.30591 0.01199,-0.99125 0.02408,-1.98249 0.03611,-2.97373 z" />
    <path
       style="fill:#8bd7f1;fill-rule:evenodd;stroke:#85ff81;stroke-width:3.2;stroke-linecap:round;stroke-linejoin:round;stroke-dasharray:none;stroke-opacity:1"
       id="path18"
       d="m 116.2214,152.93864 c 1.80157,2.24232 3.54018,4.54885 4.99907,7.03283 0.24101,0.41035 0.46072,0.83368 0.66206,1.26489 0.0674,0.14437 0.10205,0.3022 0.14171,0.45652 0.0198,0.077 -0.0546,-0.14932 -0.0819,-0.22397 -0.0724,-0.19537 -0.14473,-0.39073 -0.2171,-0.5861 0,0 -0.0749,0.0281 -0.0749,0.0281 v 0 c 0.0766,0.20279 0.15322,0.40559 0.22983,0.60838 0.0735,0.0499 0.20069,0.23644 0.22053,0.14981 0.0367,-0.15996 -0.0778,-0.3211 -0.14721,-0.46981 -0.20219,-0.4331 -0.42309,-0.85818 -0.66518,-1.27032 -0.93518,-1.59208 -1.94872,-3.0513 -3.05407,-4.53747 -0.63136,-0.84887 -1.30053,-1.66896 -1.9508,-2.50344 z" />
    <path
       style="fill:#8bd7f1;fill-rule:evenodd;stroke:#8a8eff;stroke-width:3.2;stroke-linecap:round;stroke-linejoin:round;stroke-dasharray:none;stroke-opacity:1"
       id="path19"
       d="m 135.91911,148.02618 c 1.61904,2.42546 2.86896,5.1536 4.80748,7.35941 0,0 0.0601,-0.0529 0.0601,-0.0529 v 0 c -1.93742,-2.20035 -3.18057,-4.92852 -4.7992,-7.34813 z" />
  </g>
</svg>
