<?xml version="1.0" encoding="UTF-8" standalone="no"?>
<!-- Created with Inkscape (http://www.inkscape.org/) -->

<svg
   version="1.1"
   id="svg1"
   width="1305.752"
   height="1881.1495"
   viewBox="0 0 1305.7519 1881.1496"
   xmlns="http://www.w3.org/2000/svg"
   xmlns:svg="http://www.w3.org/2000/svg">
  <defs
     id="defs1" />
  <path
     style="display:inline;fill:#f8faf7;fill-opacity:1;fill-rule:evenodd;stroke:#72864f;stroke-width:0;stroke-linecap:round;stroke-linejoin:round;stroke-dasharray:none;stroke-opacity:1"
     d="m 258.27542,1880.7707 c 0,0 -283.085071,27.1451 -254.0009908,-378.0931 C 33.358509,1097.4394 37.236389,841.49946 37.236389,841.49946 c 0,0 1.93894,-219.10009 1.93894,-308.29128 0,-89.19118 -31.0230198,-294.7187 -38.77877983,-391.66564 C -7.3592108,44.5956 101.22137,3.87788 101.22137,3.87788 L 1113.3475,0 c 0,0 145.4204,23.26727 129.9089,217.16115 -15.5115,193.89389 -3.8779,378.09308 -3.8779,378.09308 l 17.4505,387.78775 19.3894,300.53552 21.3283,224.9169 c 0,0 69.8018,360.6427 -197.7718,364.5205 -267.57359,3.8779 -841.49948,7.7558 -841.49948,7.7558 z"
     id="path1" />
  <path
     style="display:none;fill:#8bd7f1;fill-opacity:1;fill-rule:evenodd;stroke:#000000;stroke-width:0;stroke-linecap:round;stroke-linejoin:round;stroke-dasharray:none;stroke-opacity:1"
     d="m 1191.6125,774.95124 c 1.1825,-10.64228 1.3975,-31.28185 1.6125,-41.60164 0.215,-10.31978 0.4299,-10.31978 11.2874,-10.64228 10.8575,-0.3225 32.3566,-0.96747 43.9664,-0.96747 11.6098,10e-6 13.3297,0.64497 14.1897,11.07246 0.86,10.42749 0.86,30.63666 -0.215,41.27895 -1.075,10.64228 -3.2249,11.71723 -16.1249,12.25473 -12.9,0.53749 -36.549,0.53749 -47.2987,0.21499 -10.7498,-0.3225 -8.5999,-0.96746 -7.4174,-11.60974 z"
     id="path20"
     transform="translate(-576.18466,-241.91684)" />
  <path
     style="display:none;opacity:1;fill:#fa9c9c;fill-opacity:1;fill-rule:evenodd;stroke:#72864f;stroke-width:0;stroke-linecap:round;stroke-linejoin:round;stroke-dasharray:none;stroke-opacity:1"
     d="m 609.42586,605.99826 c -4.36731,-1.62696 -8.31144,-4.3757 -11.34965,-7.90978 -3.03821,-3.53408 -5.16403,-7.84599 -6.11728,-12.40798 -0.95325,-4.56198 -0.73191,-9.36435 0.63695,-13.81931 1.36885,-4.45496 3.8823,-8.55304 7.23272,-11.79266 3.21174,-3.10553 7.28305,-5.45026 11.71176,-6.03859 2.21435,-0.29416 4.49554,-0.14359 6.62882,0.519 2.13327,0.66259 4.114,1.84356 5.65256,3.46304 1.59899,1.68309 2.68815,3.79054 3.50908,5.96209 0.82093,2.17155 1.39244,4.42783 2.09137,6.64166 0.69894,2.21383 1.53752,4.40954 2.83475,6.33483 1.29723,1.92529 3.09283,3.57724 5.27517,4.36904 2.25477,0.81807 4.78499,0.66409 7.06138,-0.0918 2.27638,-0.75584 4.3253,-2.08016 6.20402,-3.57135 3.75743,-2.98238 7.02642,-6.73496 11.41326,-8.67623 2.66001,-1.17711 5.65162,-1.61687 8.52865,-1.18806 2.87704,0.42882 5.62728,1.73395 7.73316,3.74056 2.10588,2.00661 3.5488,4.71215 3.9763,7.58939 0.42749,2.87723 -0.17595,5.90765 -1.72911,8.36711 -1.28129,2.02895 -3.15009,3.62501 -5.14275,4.96203 -1.99265,1.33703 -4.12966,2.44364 -6.17012,3.70653 -2.04045,1.26288 -4.00923,2.70608 -5.50605,4.58168 -1.49681,1.8756 -2.49378,4.23305 -2.3756,6.62979 0.10286,2.0861 1.04477,4.07562 2.39314,5.6707 1.34838,1.59509 3.08543,2.82263 4.91805,3.82458 3.66524,2.0039 7.7845,3.17804 11.19781,5.58613 3.47182,2.44937 6.05448,6.15242 7.07997,10.27569 1.02549,4.12326 0.46842,8.63267 -1.59582,12.34641 -2.63046,4.73242 -7.56594,7.96036 -12.85565,9.11538 -5.28972,1.15502 -10.883,0.36983 -15.93612,-1.57468 -2.48309,-0.95553 -4.85391,-2.18238 -7.32691,-3.16372 -2.47301,-0.98134 -5.09531,-1.72134 -7.7545,-1.6349 -2.46633,0.0802 -4.87584,0.87484 -7.0389,2.06244 -2.16306,1.1876 -4.09401,2.75988 -5.88306,4.45945 -3.5781,3.39912 -6.65511,7.35286 -10.61609,10.29692 -1.98049,1.47203 -4.18404,2.68133 -6.56813,3.31798 -2.38409,0.63665 -4.95962,0.67838 -7.29472,-0.11945 -2.3351,-0.79782 -4.40333,-2.47713 -5.4531,-4.71033 -0.52489,-1.1166 -0.7919,-2.35745 -0.74117,-3.59023 0.0507,-1.23277 0.42237,-2.45493 1.09303,-3.49056 0.36572,-0.56475 0.81522,-1.07007 1.20885,-1.61573 0.39363,-0.54566 0.73724,-1.14817 0.8477,-1.81187 0.12369,-0.74316 -0.0595,-1.51979 -0.43571,-2.17255 -0.37617,-0.65275 -0.93588,-1.18736 -1.5634,-1.60427 -1.25504,-0.83382 -2.75085,-1.20253 -4.17055,-1.70732 -5.35781,-1.90503 -9.90149,-5.99654 -12.35567,-11.12609 -2.45418,-5.12955 -2.789,-11.23474 -0.91049,-16.6019 1.87851,-5.36717 5.9475,-9.93102 11.06485,-12.41054 5.11735,-2.47951 11.22081,-2.84452 16.5972,-0.99258 z"
     id="path3"
     transform="translate(5.6355992,-135.1762)" />
  <path
     style="display:none;opacity:1;fill:#f4e669;fill-opacity:1;fill-rule:evenodd;stroke:#72864f;stroke-width:0;stroke-linecap:round;stroke-linejoin:round;stroke-dasharray:none;stroke-opacity:1"
     d="m 799.32528,638.16387 c 1.53207,6.06934 -3.53552,18.6794 -0.64806,26.81116 2.88746,8.13177 13.72933,11.78501 22.00853,10.75379 8.27921,-1.03122 13.99477,-6.74678 15.88042,-14.20101 1.88566,-7.45422 -0.0589,-16.64643 4.50799,-20.35872 4.56684,-3.7123 15.64441,-1.9446 22.92186,-3.32937 7.27745,-1.38478 10.75392,-5.92187 12.4628,-11.19581 1.70888,-5.27395 1.64995,-11.28411 -0.58926,-15.52684 -2.23922,-4.24273 -6.65855,-6.71755 -12.43333,-7.45411 -5.77478,-0.73656 -12.90463,0.26516 -16.4107,-2.82851 -3.50607,-3.09367 -3.38822,-10.28229 -4.50783,-16.11604 -1.11961,-5.83375 -3.47658,-10.312 -6.83538,-14.40737 -3.3588,-4.09536 -7.71912,-7.80753 -13.05199,-8.45572 -5.33287,-0.64819 -11.63766,1.76766 -15.64468,6.09878 -4.00701,4.33111 -5.71582,10.5771 -6.33453,15.70366 -0.61872,5.12656 -0.14732,9.13342 -3.0642,11.16635 -2.91688,2.03294 -9.22179,2.09186 -13.99479,4.1543 -4.773,2.06243 -8.01384,6.12822 -9.6343,10.42983 -1.62045,4.30161 -1.62045,8.83869 -0.0884,12.81625 1.5321,3.97756 4.5961,7.3951 10.19415,8.86827 5.59804,1.47317 13.7296,1.00177 15.26166,7.07111 z"
     id="path6"
     transform="translate(-50.105881,-96.57753)" />
  <path
     style="display:none;fill:#8adee9;fill-opacity:1;fill-rule:evenodd;stroke:#000000;stroke-width:4.91339;stroke-linecap:round;stroke-linejoin:round;stroke-dasharray:none;stroke-opacity:1"
     d="m 983.60435,269.38934 c 3.65493,-12.03974 9.88979,-39.12917 18.81225,-63.53137 8.9224,-24.40221 20.5319,-46.11631 42.7843,-63.42359 22.2524,-17.30728 55.146,-30.20674 84.9231,-28.9166 29.7772,1.29013 56.4361,16.7695 71.9158,44.61181 15.4797,27.84231 19.7796,68.04566 23.6495,88.25524 3.87,20.20958 7.3098,20.42457 11.8248,18.70457 4.5149,-1.72 10.1047,-5.37485 16.3397,-17.5223 6.2349,-12.14745 13.1146,-32.7866 18.5971,-43.96639 5.4824,-11.17979 9.5672,-12.89972 13.7596,-11.6097 4.1925,1.29003 8.4923,5.58984 11.3947,6.3423 2.9025,0.75246 4.4074,-2.04246 0.4299,-6.34241 -3.9775,-4.29996 -13.4371,-10.10472 -20.747,-16.87716 -7.3099,-6.77244 -12.4696,-14.5121 -9.2446,-22.682 3.225,-8.16991 14.8346,-16.76961 22.7894,-21.06951 7.9549,-4.2999 12.2547,-4.2999 27.7347,6.34257 15.4799,10.64248 42.1388,31.92661 58.8011,48.48139 16.6622,16.55479 23.3269,28.37929 26.3369,36.87167 3.0099,8.49238 2.3649,13.65217 -1.2901,16.66212 -3.655,3.00994 -10.3197,3.8699 -19.1347,2.6874 -8.8149,-1.18251 -19.7794,-4.40737 -26.2293,-6.55734 -6.4499,-2.14997 -8.3848,-3.22491 -10.5348,2.04259 -2.15,5.2675 -4.5149,16.87703 -11.2873,32.0344 -6.7725,15.15736 -17.952,33.86162 -30.8519,47.72891 -12.8999,13.86728 -27.5193,22.89691 -40.9566,29.56182 -13.4374,6.6649 -25.6919,10.96473 -33.5392,47.62215 -7.8474,36.65741 -11.2873,105.66958 -13.8672,140.39136 -2.58,34.72178 -4.2999,35.15175 -7.2024,36.22675 -2.9025,1.075 -6.9873,2.79493 -11.1798,2.36491 -4.1924,-0.43001 -8.4923,-3.00993 -10.7497,-5.05239 -2.2575,-2.04247 -2.4725,-3.5474 -3.5475,-2.57988 -1.075,0.96751 -3.0099,4.40738 -6.5573,6.44983 -3.5475,2.04246 -8.7073,2.68743 -13.2223,2.14993 -4.5149,-0.5375 -8.3847,-2.25741 -11.6097,-2.1499 -3.225,0.10751 -5.8049,2.04244 -9.2448,3.00991 -3.44,0.96747 -7.7398,0.96747 -11.6098,-0.75253 -3.8699,-1.72 -7.3098,-5.15988 -9.8897,-12.57733 -2.58,-7.41745 -4.2999,-18.81198 -4.5149,-29.88435 -0.215,-11.07238 1.0749,-21.82194 1.7199,-29.45432 0.645,-7.63239 0.645,-12.1472 -12.5775,-13.54465 -13.2225,-1.39746 -39.6664,0.32247 -52.6736,1.28995 -13.0072,0.96749 -12.5772,1.1825 -13.0073,14.51247 -0.43,13.32997 -1.7199,39.77389 -5.0524,54.17861 -3.3325,14.40473 -8.7072,16.76961 -13.0072,18.91959 -4.2999,2.14998 -7.5248,4.08492 -11.7172,3.97739 -4.1925,-0.10752 -9.3523,-2.25744 -12.03975,-3.33241 -2.68745,-1.07498 -2.90245,-1.07498 -4.72995,2e-5 -1.82749,1.075 -5.26735,3.22491 -8.27731,4.19239 -3.00996,0.96747 -5.58986,0.75248 -8.92233,-0.43001 -3.33247,-1.1825 -7.4173,-3.33241 -11.71725,-3.76239 -4.29996,-0.42998 -8.81477,0.85997 -14.18972,-4e-5 -5.37495,-0.86002 -11.6097,-3.86989 -15.69463,-11.71736 -4.08494,-7.84746 -6.01986,-20.53194 -2.36484,-52.13678 3.65501,-31.60484 12.89963,-82.12777 15.47954,-107.49724 2.57991,-25.36947 -1.50493,-25.58446 -11.50237,-30.85195 -9.99745,-5.26749 -25.9068,-15.58707 -35.68913,-24.72446 -9.78234,-9.13739 -13.43719,-17.09206 -25.58464,-18.38198 -12.14745,-1.28992 -32.7866,4.08486 -49.87888,-20.31767 -17.09228,-24.40253 -30.63672,-78.58031 -37.40908,-105.77724 -6.77236,-27.19693 -6.77236,-27.41192 12.14763,-33.75441 18.91998,-6.3425 56.75843,-18.81198 76.32303,-25.47685 19.5646,-6.66487 20.85455,-7.52484 24.83203,3.65516 3.97748,11.18 10.64221,34.39905 14.94214,43.7513 4.29993,9.35226 6.23485,4.83745 8.81483,4.62249 2.57998,-0.21495 5.80484,3.86988 8.38481,3.22484 2.57997,-0.64504 4.51489,-6.01982 8.06236,-6.34226 3.54748,-0.32245 8.70727,4.40736 12.25471,15.5873 3.54745,11.17994 5.48237,28.80922 9.24484,40.31153 3.76248,11.50231 9.35225,16.87709 12.68469,21.06954 3.33244,4.19244 4.4074,7.20231 8.06232,-4.83744 z"
     id="path9"
     transform="translate(-25.240411,-156.57954)" />
  <path
     style="display:none;fill:#f9d09c;fill-opacity:1;fill-rule:evenodd;stroke:#72864f;stroke-width:0;stroke-linecap:round;stroke-linejoin:round;stroke-dasharray:none;stroke-opacity:1"
     d="m 167.95201,714.31017 c -2.10426,-4.59251 -2.42136,-9.85987 -1.62115,-14.84773 0.80021,-4.98786 2.66319,-9.74359 4.7749,-14.33268 2.11171,-4.58909 4.48583,-9.06021 6.39206,-13.73839 1.90623,-4.67818 3.3474,-9.61482 3.47904,-14.66474 0.16196,-6.21284 -1.65475,-12.30706 -2.05656,-18.50901 -0.4723,-7.29003 1.06836,-14.71987 4.53163,-21.15208 3.46328,-6.4322 8.85447,-11.8343 15.34841,-15.18039 1.93821,-0.99869 4.0016,-1.82512 6.16966,-2.05655 3.53127,-0.37695 7.08532,0.86747 10.06671,2.79704 2.9814,1.92957 5.47317,4.51345 7.9094,7.09739 2.43623,2.58394 4.86915,5.21267 7.77004,7.26127 2.9009,2.0486 6.35063,3.5001 9.90081,3.40985 3.40926,-0.0867 6.66435,-1.59102 9.37056,-3.66634 2.70621,-2.07533 4.9295,-4.70481 7.08131,-7.35061 2.15181,-2.6458 4.26965,-5.34557 6.81827,-7.61164 2.54862,-2.26608 5.58834,-4.10022 8.94922,-4.67904 3.91919,-0.67498 7.91353,0.39254 11.70341,1.59771 3.78988,1.20518 7.62776,2.57386 11.60422,2.5154 4.47155,-0.0657 8.77349,-1.96661 12.33956,-4.66516 3.56608,-2.69854 6.47231,-6.16591 9.17865,-9.72607 2.70635,-3.56017 5.25366,-7.25411 8.25927,-10.56552 3.00561,-3.3114 6.52621,-6.26177 10.6681,-7.94813 4.04264,-1.64595 8.56646,-2.01611 12.86097,-1.23551 4.29451,0.78061 8.35597,2.68995 11.8177,5.34862 4.63799,3.56206 8.14111,8.36283 11.5987,13.07922 3.45758,4.7164 7.00856,9.49114 11.70892,12.97048 3.19221,2.36297 6.99668,4.10323 10.9683,4.11311 2.98045,0.007 5.87421,-0.94984 8.65661,-2.01819 2.7824,-1.06835 5.54546,-2.26694 8.48135,-2.78044 4.34291,-0.75959 8.82534,0.0287 13.02485,1.37104 11.39141,3.64123 21.21941,11.30908 28.79176,20.56555 1.39784,1.70872 2.72948,3.47743 4.26364,5.06488 1.53417,1.58745 3.29388,3.00239 5.33363,3.84686 1.90165,0.7873 3.99268,1.05334 6.04908,0.96768 2.0564,-0.0856 4.08538,-0.51382 6.06646,-1.07188 3.96216,-1.11612 7.79975,-2.76164 11.8776,-3.32339 4.41442,-0.60811 8.98851,0.10606 13.05128,1.93658 4.06277,1.83052 7.60896,4.76175 10.25634,8.3462 4.02566,5.45058 5.92847,12.51332 4.79863,19.19451 -0.83378,4.93047 -3.22019,9.46573 -5.96135,13.64792 -2.74117,4.18219 -5.86963,8.10923 -8.43453,12.40178 -2.51704,4.21245 -4.46777,8.7376 -6.85518,13.02485 -3.74372,6.72288 -8.53607,12.81346 -13.71037,18.509 -5.57259,6.13394 -11.93524,12.03811 -19.88004,14.39588 -5.10128,1.5139 -10.54964,1.45866 -15.82801,0.78504 -5.27836,-0.67362 -10.46026,-1.94774 -15.70583,-2.84159 -4.81156,-0.8199 -9.68628,-1.32173 -14.42118,-2.5067 -4.73489,-1.18497 -9.39667,-3.11224 -12.99956,-6.40504 -2.04759,-1.87136 -3.70238,-4.13511 -5.71361,-6.0455 -1.00561,-0.9552 -2.105,-1.82376 -3.33304,-2.46839 -1.22805,-0.64464 -2.59143,-1.06051 -3.9782,-1.08337 -1.68624,-0.0278 -3.35096,0.52874 -4.78787,1.41161 -1.43691,0.88288 -2.65909,2.08132 -3.72577,3.38761 -2.13337,2.61256 -3.67918,5.67157 -5.88225,8.22563 -2.66882,3.09402 -6.22718,5.3405 -10.02824,6.83966 -3.80106,1.49916 -7.85022,2.28095 -11.90834,2.75759 -2.95282,0.34682 -5.93845,0.53601 -8.89899,0.2629 -2.96054,-0.27311 -5.90549,-1.02167 -8.50664,-2.4616 -2.60116,-1.43993 -4.84587,-3.60069 -6.13085,-6.28178 -1.28498,-2.68108 -1.54851,-5.8921 -0.45667,-8.65747 0.35478,-0.89858 0.85229,-1.77488 0.89098,-2.74019 0.0193,-0.48266 -0.0856,-0.98042 -0.36054,-1.37761 -0.13745,-0.19859 -0.31616,-0.3697 -0.52537,-0.49039 -0.2092,-0.12069 -0.44907,-0.19006 -0.69059,-0.19044 -0.25732,-4e-4 -0.51182,0.0772 -0.73526,0.20484 -0.22344,0.12763 -0.41677,0.30402 -0.5799,0.50303 -0.32625,0.39802 -0.53046,0.87925 -0.74139,1.34868 -3.77985,8.41194 -10.99464,14.97432 -19.19452,19.19452 -7.77561,4.00184 -16.71192,6.0688 -25.36418,4.79863 -11.46935,-1.68373 -21.4881,-8.95881 -32.90488,-10.9683 -7.14652,-1.25788 -14.50537,-0.38431 -21.6061,1.1106 -7.10072,1.49492 -14.06866,3.60656 -21.21598,4.85987 -7.14733,1.2533 -14.59898,1.6225 -21.58081,-0.35466 -3.49091,-0.98858 -6.83201,-2.56501 -9.70579,-4.77975 -2.87379,-2.21475 -5.27117,-5.07833 -6.78249,-8.37676 z"
     id="path2"
     transform="translate(-5.6782408,-48.63837)" />
  <path
     style="display:none;fill:#f3e98a;fill-opacity:1;fill-rule:evenodd;stroke:#000000;stroke-width:4.91339;stroke-linecap:round;stroke-linejoin:round;stroke-dasharray:none;stroke-opacity:1"
     d="m 183.71364,507.17435 c -4.4074,5.37489 -12.79223,6.44987 -19.02714,9.35236 -6.2349,2.90248 -10.31974,7.63229 -9.5672,12.03974 0.75254,4.40744 6.34231,8.49228 11.71725,10.85723 5.37494,2.36496 10.53473,3.00993 11.82468,6.44992 1.28994,3.43999 -1.28995,9.67474 -1.39743,15.15717 -0.10747,5.48243 2.25743,10.21224 6.87991,12.03969 4.62247,1.82745 11.50218,0.7525 16.98461,-2.68749 5.48243,-3.43999 9.56726,-9.24475 14.72721,-9.67469 5.15996,-0.42994 11.3947,4.51486 17.41463,6.3423 6.01993,1.82745 11.8247,0.5375 15.37213,-2.68748 3.54744,-3.22498 4.83739,-8.38477 3.33238,-13.86721 -1.50502,-5.48245 -5.80484,-11.28721 -4.6223,-16.12465 1.18255,-4.83744 7.84727,-8.70727 11.3947,-12.25473 3.54743,-3.54746 3.97742,-6.77233 2.79491,-10.10479 -1.1825,-3.33247 -3.97739,-6.77233 -10.42736,-8.06229 -6.44996,-1.28996 -16.55454,-0.43 -25.36943,-4.6225 -8.81489,-4.19251 -16.33943,-13.43694 -22.25193,-17.09194 -5.91249,-3.655 -10.21232,-1.72008 -12.57727,4.0849 -2.36496,5.80497 -2.79494,15.47958 -7.20235,20.85446 z"
     id="path7"
     transform="translate(72.070089,-288.52023)" />
  <path
     style="display:none;fill:#edd6b3;fill-opacity:1;fill-rule:evenodd;stroke:#000000;stroke-width:4.91339;stroke-linecap:round;stroke-linejoin:round;stroke-dasharray:none;stroke-opacity:1"
     d="m 180.59621,263.79947 c 5.58988,0.64498 16.33966,0.64498 26.12204,0.53748 9.78238,-0.1075 18.59702,-0.32249 32.24942,-0.85999 13.6524,-0.5375 32.14164,-1.39746 47.94394,-2.47245 15.8023,-1.07499 28.91676,-2.36494 38.37662,-3.43992 9.45986,-1.07499 15.26462,-1.93496 23.86456,-2.25745 8.59993,-0.32249 19.99446,-0.1075 33.21683,-0.1075 13.22238,0 28.27176,-0.21499 43.64409,0.10751 15.37234,0.3225 31.0667,1.18247 46.65403,1.39746 15.58732,0.21499 31.06669,-0.21499 46.97651,-0.85999 15.90983,-0.64499 32.24917,-1.50496 52.02899,-2.47245 19.77981,-0.96749 42.99886,-2.04244 66.00361,-2.79493 23.00474,-0.75249 45.7938,-1.18248 65.25106,-0.96747 19.45725,0.215 35.58127,1.07495 43.75126,1.39745 8.16999,0.3225 8.38498,0.10751 8.59997,-0.10749 2.36495,5.15989 4.72985,10.31968 -7.74013,12.14718 -12.46999,1.8275 -39.77387,0.32256 -59.33857,0.32257 -19.56471,2e-5 -31.38923,1.50496 -48.58909,1.93495 -17.19987,0.42998 -39.77394,-0.21499 -67.50868,-0.32249 -27.73475,-0.10749 -60.62841,0.32249 -84.60056,0.85998 -23.97214,0.5375 -39.02152,1.18247 -55.25385,0.96747 -16.23234,-0.21501 -33.64628,-1.28995 -47.83627,-1.82745 -14.18998,-0.5375 -25.15431,-0.53749 -42.5693,0.75251 -17.41498,1.29 -41.27899,3.86989 -65.78873,5.26736 -24.50974,1.39748 -49.66371,1.61247 -67.18594,2.90246 -17.52223,1.29 -27.41164,3.65486 -31.92663,1.61236 -4.51499,-2.04249 -3.65503,-8.49224 -3.01004,-11.07217 0.64499,-2.57993 1.07498,-1.28998 6.66486,-0.64499 z"
     id="path8"
     transform="translate(-63.247431,49.12069)" />
</svg>
