<?xml version="1.0" encoding="UTF-8" standalone="no"?>
<!-- Created with Inkscape (http://www.inkscape.org/) -->

<svg
   version="1.1"
   id="svg1"
   width="104.92352"
   height="114.14828"
   viewBox="0 0 104.92351 114.14829"
   sodipodi:docname="flower2.svg"
   inkscape:version="1.3.2 (091e20e, 2023-11-25, custom)"
   xmlns:inkscape="http://www.inkscape.org/namespaces/inkscape"
   xmlns:sodipodi="http://sodipodi.sourceforge.net/DTD/sodipodi-0.dtd"
   xmlns="http://www.w3.org/2000/svg"
   xmlns:svg="http://www.w3.org/2000/svg">
  <defs
     id="defs1">
    <inkscape:path-effect
       effect="bspline"
       id="path-effect20"
       is_visible="true"
       lpeversion="1.3"
       weight="33.333333"
       steps="2"
       helper_size="0"
       apply_no_weight="true"
       apply_with_weight="true"
       only_selected="false"
       uniform="false" />
    <inkscape:path-effect
       effect="bspline"
       id="path-effect19"
       is_visible="true"
       lpeversion="1.3"
       weight="33.333333"
       steps="2"
       helper_size="0"
       apply_no_weight="true"
       apply_with_weight="true"
       only_selected="false"
       uniform="false" />
    <inkscape:path-effect
       effect="bspline"
       id="path-effect9"
       is_visible="true"
       lpeversion="1.3"
       weight="33.333333"
       steps="2"
       helper_size="0"
       apply_no_weight="true"
       apply_with_weight="true"
       only_selected="false"
       uniform="false" />
    <inkscape:path-effect
       effect="bspline"
       id="path-effect8"
       is_visible="true"
       lpeversion="1.3"
       weight="33.333333"
       steps="2"
       helper_size="0"
       apply_no_weight="true"
       apply_with_weight="true"
       only_selected="false"
       uniform="false" />
    <inkscape:path-effect
       effect="bspline"
       id="path-effect7"
       is_visible="true"
       lpeversion="1.3"
       weight="33.333333"
       steps="2"
       helper_size="0"
       apply_no_weight="true"
       apply_with_weight="true"
       only_selected="false"
       uniform="false" />
    <inkscape:path-effect
       effect="bspline"
       id="path-effect6"
       is_visible="true"
       lpeversion="1.3"
       weight="33.333333"
       steps="2"
       helper_size="0"
       apply_no_weight="true"
       apply_with_weight="true"
       only_selected="false"
       uniform="false" />
    <inkscape:path-effect
       effect="bspline"
       id="path-effect5"
       is_visible="true"
       lpeversion="1.3"
       weight="33.333333"
       steps="2"
       helper_size="0"
       apply_no_weight="true"
       apply_with_weight="true"
       only_selected="false"
       uniform="false" />
    <inkscape:path-effect
       effect="bspline"
       id="path-effect4"
       is_visible="true"
       lpeversion="1.3"
       weight="33.333333"
       steps="2"
       helper_size="0"
       apply_no_weight="true"
       apply_with_weight="true"
       only_selected="false"
       uniform="false" />
    <inkscape:path-effect
       effect="spiro"
       id="path-effect3"
       is_visible="true"
       lpeversion="1" />
    <inkscape:path-effect
       effect="spiro"
       id="path-effect2"
       is_visible="true"
       lpeversion="1" />
  </defs>
  <sodipodi:namedview
     id="namedview1"
     pagecolor="#ffffff"
     bordercolor="#111111"
     borderopacity="1"
     inkscape:showpageshadow="0"
     inkscape:pageopacity="0"
     inkscape:pagecheckerboard="1"
     inkscape:deskcolor="#d1d1d1"
     showgrid="false"
     inkscape:zoom="0.5481563"
     inkscape:cx="-297.36044"
     inkscape:cy="-166.01105"
     inkscape:window-width="1450"
     inkscape:window-height="1020"
     inkscape:window-x="64"
     inkscape:window-y="0"
     inkscape:window-maximized="0"
     inkscape:current-layer="svg1" />
  <path
     style="display:none;fill:#f8faf7;fill-opacity:1;fill-rule:evenodd;stroke:#72864f;stroke-width:0;stroke-linecap:round;stroke-linejoin:round;stroke-dasharray:none;stroke-opacity:1"
     d="m -464.34992,1415.5971 c 0,0 -283.08507,27.1451 -254.00099,-378.0931 29.08408,-405.23815 32.96196,-661.17809 32.96196,-661.17809 0,0 1.93894,-219.10009 1.93894,-308.291276 0,-89.191184 -31.02302,-294.718704 -38.77878,-391.665644 -7.75576,-96.94694 100.82482,-137.66466 100.82482,-137.66466 l 1012.12613,-3.87788 c 0,0 145.4204,23.26727 129.9089,217.16115 -15.5115,193.893891 -3.8779,378.09308 -3.8779,378.09308 l 17.4505,387.78775 19.3894,300.53552 21.3283,224.91685 c 0,0 69.8018,360.6427 -197.7718,364.5205 -267.57359,3.8779 -841.49948,7.7558 -841.49948,7.7558 z"
     id="path1"
     inkscape:label="path1"
     sodipodi:nodetypes="cscssccsccccsc" />
  <path
     style="display:none;fill:#8bd7f1;fill-opacity:1;fill-rule:evenodd;stroke:#000000;stroke-width:0;stroke-linecap:round;stroke-linejoin:round;stroke-dasharray:none;stroke-opacity:1"
     d="m 1191.6125,774.95124 c 1.1825,-10.64228 1.3975,-31.28185 1.6125,-41.60164 0.215,-10.31978 0.4299,-10.31978 11.2874,-10.64228 10.8575,-0.3225 32.3566,-0.96747 43.9664,-0.96747 11.6098,10e-6 13.3297,0.64497 14.1897,11.07246 0.86,10.42749 0.86,30.63666 -0.215,41.27895 -1.075,10.64228 -3.2249,11.71723 -16.1249,12.25473 -12.9,0.53749 -36.549,0.53749 -47.2987,0.21499 -10.7498,-0.3225 -8.5999,-0.96746 -7.4174,-11.60974 z"
     id="path20"
     inkscape:path-effect="#path-effect20"
     inkscape:original-d="m 1192.58,784.94852 c 0.215,-20.63956 0.43,-41.27913 0.645,-61.9187 0.215,0 0.4299,0 0.6449,0 21.5,-0.645 42.9991,-1.28997 64.4987,-1.93496 1.72,0.645 3.4399,1.28998 5.1599,1.93496 0,20.20998 0,40.41915 0,60.62873 -2.15,1.075 -4.2999,2.14996 -6.4499,3.22493 -23.65,0 -47.299,0 -70.9485,0 2.15,-0.645 4.2999,-1.28997 6.4499,-1.93496 z"
     transform="translate(-1298.81,-707.09039)" />
  <path
     style="display:none;opacity:1;fill:#fa9c9c;fill-opacity:1;fill-rule:evenodd;stroke:#72864f;stroke-width:0;stroke-linecap:round;stroke-linejoin:round;stroke-dasharray:none;stroke-opacity:1"
     d="m 609.42586,605.99826 c -4.36731,-1.62696 -8.31144,-4.3757 -11.34965,-7.90978 -3.03821,-3.53408 -5.16403,-7.84599 -6.11728,-12.40798 -0.95325,-4.56198 -0.73191,-9.36435 0.63695,-13.81931 1.36885,-4.45496 3.8823,-8.55304 7.23272,-11.79266 3.21174,-3.10553 7.28305,-5.45026 11.71176,-6.03859 2.21435,-0.29416 4.49554,-0.14359 6.62882,0.519 2.13327,0.66259 4.114,1.84356 5.65256,3.46304 1.59899,1.68309 2.68815,3.79054 3.50908,5.96209 0.82093,2.17155 1.39244,4.42783 2.09137,6.64166 0.69894,2.21383 1.53752,4.40954 2.83475,6.33483 1.29723,1.92529 3.09283,3.57724 5.27517,4.36904 2.25477,0.81807 4.78499,0.66409 7.06138,-0.0918 2.27638,-0.75584 4.3253,-2.08016 6.20402,-3.57135 3.75743,-2.98238 7.02642,-6.73496 11.41326,-8.67623 2.66001,-1.17711 5.65162,-1.61687 8.52865,-1.18806 2.87704,0.42882 5.62728,1.73395 7.73316,3.74056 2.10588,2.00661 3.5488,4.71215 3.9763,7.58939 0.42749,2.87723 -0.17595,5.90765 -1.72911,8.36711 -1.28129,2.02895 -3.15009,3.62501 -5.14275,4.96203 -1.99265,1.33703 -4.12966,2.44364 -6.17012,3.70653 -2.04045,1.26288 -4.00923,2.70608 -5.50605,4.58168 -1.49681,1.8756 -2.49378,4.23305 -2.3756,6.62979 0.10286,2.0861 1.04477,4.07562 2.39314,5.6707 1.34838,1.59509 3.08543,2.82263 4.91805,3.82458 3.66524,2.0039 7.7845,3.17804 11.19781,5.58613 3.47182,2.44937 6.05448,6.15242 7.07997,10.27569 1.02549,4.12326 0.46842,8.63267 -1.59582,12.34641 -2.63046,4.73242 -7.56594,7.96036 -12.85565,9.11538 -5.28972,1.15502 -10.883,0.36983 -15.93612,-1.57468 -2.48309,-0.95553 -4.85391,-2.18238 -7.32691,-3.16372 -2.47301,-0.98134 -5.09531,-1.72134 -7.7545,-1.6349 -2.46633,0.0802 -4.87584,0.87484 -7.0389,2.06244 -2.16306,1.1876 -4.09401,2.75988 -5.88306,4.45945 -3.5781,3.39912 -6.65511,7.35286 -10.61609,10.29692 -1.98049,1.47203 -4.18404,2.68133 -6.56813,3.31798 -2.38409,0.63665 -4.95962,0.67838 -7.29472,-0.11945 -2.3351,-0.79782 -4.40333,-2.47713 -5.4531,-4.71033 -0.52489,-1.1166 -0.7919,-2.35745 -0.74117,-3.59023 0.0507,-1.23277 0.42237,-2.45493 1.09303,-3.49056 0.36572,-0.56475 0.81522,-1.07007 1.20885,-1.61573 0.39363,-0.54566 0.73724,-1.14817 0.8477,-1.81187 0.12369,-0.74316 -0.0595,-1.51979 -0.43571,-2.17255 -0.37617,-0.65275 -0.93588,-1.18736 -1.5634,-1.60427 -1.25504,-0.83382 -2.75085,-1.20253 -4.17055,-1.70732 -5.35781,-1.90503 -9.90149,-5.99654 -12.35567,-11.12609 -2.45418,-5.12955 -2.789,-11.23474 -0.91049,-16.6019 1.87851,-5.36717 5.9475,-9.93102 11.06485,-12.41054 5.11735,-2.47951 11.22081,-2.84452 16.5972,-0.99258 z"
     id="path3"
     inkscape:original-d="m 609.42586,605.99826 c 2.97058,-13.71036 -6.85519,-30.39131 -9.59726,-45.92973 -2.74208,-15.53842 16.22393,-1.14253 23.99314,-2.05655 7.76921,-0.91403 9.14025,15.0814 13.71037,23.30762 4.57012,8.22622 16.22394,-8.22622 24.67866,-12.33933 8.45473,-4.11311 12.33933,12.33933 18.509,18.509 6.16966,6.16966 -12.56784,13.25335 -19.19452,19.88003 -6.62667,6.62668 11.65382,10.28278 18.509,15.08141 6.85518,4.79862 4.11311,14.85289 5.48415,22.6221 1.37103,7.76921 -19.42302,5.02714 -28.79177,7.5407 -9.36876,2.51357 -9.82577,-2.97057 -15.08141,-4.79862 -5.25564,-1.82805 -28.33476,5.25564 -42.50214,8.22622 -14.16738,2.97058 1.37104,-1.82805 2.05655,-3.4276 0.68552,-1.59954 -4.11311,-4.11311 -6.16966,-5.48414 -2.05656,-1.37104 8.68323,-27.42074 14.39589,-41.13111 z"
     inkscape:path-effect="#path-effect3"
     transform="translate(-716.98974,-600.34975)" />
  <path
     style="display:inline;opacity:1;fill:#f4e669;fill-opacity:1;fill-rule:evenodd;stroke:#72864f;stroke-width:0;stroke-linecap:round;stroke-linejoin:round;stroke-dasharray:none;stroke-opacity:1"
     d="m 799.32528,638.16387 c 1.53207,6.06934 -3.53552,18.6794 -0.64806,26.81116 2.88746,8.13177 13.72933,11.78501 22.00853,10.75379 8.27921,-1.03122 13.99477,-6.74678 15.88042,-14.20101 1.88566,-7.45422 -0.0589,-16.64643 4.50799,-20.35872 4.56684,-3.7123 15.64441,-1.9446 22.92186,-3.32937 7.27745,-1.38478 10.75392,-5.92187 12.4628,-11.19581 1.70888,-5.27395 1.64995,-11.28411 -0.58926,-15.52684 -2.23922,-4.24273 -6.65855,-6.71755 -12.43333,-7.45411 -5.77478,-0.73656 -12.90463,0.26516 -16.4107,-2.82851 -3.50607,-3.09367 -3.38822,-10.28229 -4.50783,-16.11604 -1.11961,-5.83375 -3.47658,-10.312 -6.83538,-14.40737 -3.3588,-4.09536 -7.71912,-7.80753 -13.05199,-8.45572 -5.33287,-0.64819 -11.63766,1.76766 -15.64468,6.09878 -4.00701,4.33111 -5.71582,10.5771 -6.33453,15.70366 -0.61872,5.12656 -0.14732,9.13342 -3.0642,11.16635 -2.91688,2.03294 -9.22179,2.09186 -13.99479,4.1543 -4.773,2.06243 -8.01384,6.12822 -9.6343,10.42983 -1.62045,4.30161 -1.62045,8.83869 -0.0884,12.81625 1.5321,3.97756 4.5961,7.3951 10.19415,8.86827 5.59804,1.47317 13.7296,1.00177 15.26166,7.07111 z"
     id="path6"
     inkscape:path-effect="#path-effect6"
     inkscape:original-d="m 805.92495,631.62313 c -5.0676,12.61008 -10.13519,25.22014 -15.20279,37.83021 10.84252,3.65346 21.68439,7.3067 32.5269,10.96016 5.7159,-5.7159 11.43146,-11.43146 17.14735,-17.14735 -1.94458,-9.19256 -3.88909,-18.38477 -5.83363,-27.57716 11.07822,1.7678 22.15579,3.5355 33.23402,5.30331 3.47667,-4.53736 6.95314,-9.07445 10.42982,-13.61181 -0.0589,-6.01053 -0.11785,-12.02069 -0.17677,-18.03122 -4.41951,-2.47493 -8.83884,-4.94975 -13.25826,-7.42462 -7.13014,1.00175 -14.25999,2.00346 -21.38998,3.0052 0.11785,-7.18907 0.2357,-14.37769 0.35355,-21.56676 -2.35707,-4.47843 -4.71404,-8.95668 -7.07106,-13.43503 -4.36058,-3.71238 -8.7209,-7.42455 -13.08148,-11.13693 -6.30516,2.416 -12.60995,4.83185 -18.91511,7.24785 -1.70887,6.24623 -3.41768,12.49222 -5.12652,18.73833 0.47141,4.00701 0.94281,8.01387 1.41421,12.02081 -6.30516,0.0589 -12.61007,0.11785 -18.9151,0.17678 -3.24097,4.06594 -6.48181,8.13173 -9.72272,12.19759 0,4.53736 0,9.07444 0,13.61181 3.06419,3.41775 6.12819,6.83529 9.19238,10.25304 8.1319,-0.47141 16.26346,-0.94281 24.39519,-1.41421 z"
     sodipodi:nodetypes="ccccccccccccccccccccc"
     transform="translate(-772.73122,-561.75108)" />
  <path
     style="display:none;fill:#8adee9;fill-opacity:1;fill-rule:evenodd;stroke:#000000;stroke-width:4.91339;stroke-linecap:round;stroke-linejoin:round;stroke-dasharray:none;stroke-opacity:1"
     d="m 983.60435,269.38934 c 3.65493,-12.03974 9.88979,-39.12917 18.81225,-63.53137 8.9224,-24.40221 20.5319,-46.11631 42.7843,-63.42359 22.2524,-17.30728 55.146,-30.20674 84.9231,-28.9166 29.7772,1.29013 56.4361,16.7695 71.9158,44.61181 15.4797,27.84231 19.7796,68.04566 23.6495,88.25524 3.87,20.20958 7.3098,20.42457 11.8248,18.70457 4.5149,-1.72 10.1047,-5.37485 16.3397,-17.5223 6.2349,-12.14745 13.1146,-32.7866 18.5971,-43.96639 5.4824,-11.17979 9.5672,-12.89972 13.7596,-11.6097 4.1925,1.29003 8.4923,5.58984 11.3947,6.3423 2.9025,0.75246 4.4074,-2.04246 0.4299,-6.34241 -3.9775,-4.29996 -13.4371,-10.10472 -20.747,-16.87716 -7.3099,-6.77244 -12.4696,-14.5121 -9.2446,-22.682 3.225,-8.16991 14.8346,-16.76961 22.7894,-21.06951 7.9549,-4.2999 12.2547,-4.2999 27.7347,6.34257 15.4799,10.64248 42.1388,31.92661 58.8011,48.48139 16.6622,16.55479 23.3269,28.37929 26.3369,36.87167 3.0099,8.49238 2.3649,13.65217 -1.2901,16.66212 -3.655,3.00994 -10.3197,3.8699 -19.1347,2.6874 -8.8149,-1.18251 -19.7794,-4.40737 -26.2293,-6.55734 -6.4499,-2.14997 -8.3848,-3.22491 -10.5348,2.04259 -2.15,5.2675 -4.5149,16.87703 -11.2873,32.0344 -6.7725,15.15736 -17.952,33.86162 -30.8519,47.72891 -12.8999,13.86728 -27.5193,22.89691 -40.9566,29.56182 -13.4374,6.6649 -25.6919,10.96473 -33.5392,47.62215 -7.8474,36.65741 -11.2873,105.66958 -13.8672,140.39136 -2.58,34.72178 -4.2999,35.15175 -7.2024,36.22675 -2.9025,1.075 -6.9873,2.79493 -11.1798,2.36491 -4.1924,-0.43001 -8.4923,-3.00993 -10.7497,-5.05239 -2.2575,-2.04247 -2.4725,-3.5474 -3.5475,-2.57988 -1.075,0.96751 -3.0099,4.40738 -6.5573,6.44983 -3.5475,2.04246 -8.7073,2.68743 -13.2223,2.14993 -4.5149,-0.5375 -8.3847,-2.25741 -11.6097,-2.1499 -3.225,0.10751 -5.8049,2.04244 -9.2448,3.00991 -3.44,0.96747 -7.7398,0.96747 -11.6098,-0.75253 -3.8699,-1.72 -7.3098,-5.15988 -9.8897,-12.57733 -2.58,-7.41745 -4.2999,-18.81198 -4.5149,-29.88435 -0.215,-11.07238 1.0749,-21.82194 1.7199,-29.45432 0.645,-7.63239 0.645,-12.1472 -12.5775,-13.54465 -13.2225,-1.39746 -39.6664,0.32247 -52.6736,1.28995 -13.0072,0.96749 -12.5772,1.1825 -13.0073,14.51247 -0.43,13.32997 -1.7199,39.77389 -5.0524,54.17861 -3.3325,14.40473 -8.7072,16.76961 -13.0072,18.91959 -4.2999,2.14998 -7.5248,4.08492 -11.7172,3.97739 -4.1925,-0.10752 -9.3523,-2.25744 -12.03975,-3.33241 -2.68745,-1.07498 -2.90245,-1.07498 -4.72995,2e-5 -1.82749,1.075 -5.26735,3.22491 -8.27731,4.19239 -3.00996,0.96747 -5.58986,0.75248 -8.92233,-0.43001 -3.33247,-1.1825 -7.4173,-3.33241 -11.71725,-3.76239 -4.29996,-0.42998 -8.81477,0.85997 -14.18972,-4e-5 -5.37495,-0.86002 -11.6097,-3.86989 -15.69463,-11.71736 -4.08494,-7.84746 -6.01986,-20.53194 -2.36484,-52.13678 3.65501,-31.60484 12.89963,-82.12777 15.47954,-107.49724 2.57991,-25.36947 -1.50493,-25.58446 -11.50237,-30.85195 -9.99745,-5.26749 -25.9068,-15.58707 -35.68913,-24.72446 -9.78234,-9.13739 -13.43719,-17.09206 -25.58464,-18.38198 -12.14745,-1.28992 -32.7866,4.08486 -49.87888,-20.31767 -17.09228,-24.40253 -30.63672,-78.58031 -37.40908,-105.77724 -6.77236,-27.19693 -6.77236,-27.41192 12.14763,-33.75441 18.91998,-6.3425 56.75843,-18.81198 76.32303,-25.47685 19.5646,-6.66487 20.85455,-7.52484 24.83203,3.65516 3.97748,11.18 10.64221,34.39905 14.94214,43.7513 4.29993,9.35226 6.23485,4.83745 8.81483,4.62249 2.57998,-0.21495 5.80484,3.86988 8.38481,3.22484 2.57997,-0.64504 4.51489,-6.01982 8.06236,-6.34226 3.54748,-0.32245 8.70727,4.40736 12.25471,15.5873 3.54745,11.17994 5.48237,28.80922 9.24484,40.31153 3.76248,11.50231 9.35225,16.87709 12.68469,21.06954 3.33244,4.19244 4.4074,7.20231 8.06232,-4.83744 z"
     id="path9"
     inkscape:path-effect="#path-effect9"
     inkscape:original-d="m 981.02441,284.43903 c 6.23487,-27.08943 12.46974,-54.17886 18.7046,-81.26829 11.60999,-21.71498 23.21949,-43.42909 34.82929,-65.14364 32.895,-12.89998 65.7886,-25.79946 98.6829,-38.699185 26.66,15.479985 53.3189,30.959355 79.9783,46.439025 4.3,40.20496 8.5999,80.40831 12.8998,120.61247 3.44,0.215 6.8798,0.42999 10.3197,0.64498 5.59,-3.65499 11.1798,-7.30984 16.7697,-10.96476 6.88,-20.63998 13.7597,-41.27914 20.6396,-61.91871 4.085,-1.71999 8.1698,-3.43992 12.2547,-5.15989 4.3,4.3 8.5998,8.59982 12.8997,12.89973 1.505,-2.79499 3.01,-5.58988 4.5149,-8.38482 -9.46,-5.805 -18.9196,-11.60976 -28.3794,-17.41464 -5.16,-7.73999 -10.3197,-15.47967 -15.4796,-23.21951 11.6099,-8.59999 23.2195,-17.19964 34.8292,-25.79946 4.3,0 8.5998,0 12.8998,0 26.6599,21.28498 53.3188,42.56911 79.9783,63.85366 6.665,11.82499 13.3297,23.64951 19.9946,35.47426 -0.645,5.15999 -1.29,10.31978 -1.935,15.47967 -6.665,0.86 -13.3297,1.71997 -19.9946,2.57995 -10.965,-3.225 -21.9295,-6.44987 -32.8943,-9.6748 -1.935,-1.075 -3.8699,-2.14995 -5.8049,-3.22493 -2.365,11.60999 -4.7299,23.21951 -7.0948,34.82927 -11.18,18.70498 -22.3596,37.40921 -33.5393,56.11382 -14.62,9.02999 -29.2394,18.05962 -43.8591,27.08943 -12.255,4.3 -24.5095,8.59982 -36.7642,12.89973 -3.44,69.01493 -6.8799,138.0271 -10.3198,207.04066 -1.72,0.42999 -3.4399,0.85998 -5.1599,1.28997 -4.085,1.72 -8.1698,3.43993 -12.2547,5.15989 -4.3,-2.58 -8.5999,-5.15989 -12.8998,-7.73984 -0.215,-1.505 -0.43,-3.00993 -0.645,-4.5149 -1.935,3.43999 -3.8699,6.87985 -5.8048,10.31978 -5.16,0.645 -10.3198,1.28997 -15.4797,1.93496 -3.87,-1.72 -7.7398,-3.43993 -11.6098,-5.15989 -2.58,1.935 -5.1599,3.86992 -7.7398,5.80488 -4.3,0 -8.5998,0 -12.8997,0 -3.44,-3.44 -6.8799,-6.87986 -10.3198,-10.31979 -1.72,-11.39499 -3.4399,-22.78952 -5.1599,-34.18428 1.29,-10.74999 2.5799,-21.49955 3.8699,-32.24932 0,-4.515 0,-9.02981 0,-13.54472 -26.445,1.72 -52.8889,3.43993 -79.3333,5.15989 0.43,0.215 0.86,0.42999 1.2899,0.64499 -1.29,26.44497 -2.5799,52.88889 -3.8699,79.33333 -5.375,2.365 -10.7497,4.72991 -16.1246,7.09486 -3.225,1.93499 -6.4499,3.86991 -9.6748,5.80487 -5.16,-2.14999 -10.3198,-4.29991 -15.4797,-6.44986 -0.215,0 -0.43,0 -0.64499,0 -3.44,2.15 -6.87986,4.29991 -10.31978,6.44986 -2.58,-0.215 -5.1599,-0.42999 -7.73984,-0.64498 -4.085,-2.15 -8.16983,-4.29991 -12.25474,-6.44987 -4.515,1.29 -9.02981,2.57995 -13.54472,3.86992 -6.23499,-3.01 -12.46974,-6.01987 -18.70461,-9.02981 -1.935,-12.68499 -3.86992,-25.36947 -5.80488,-38.0542 9.245,-50.52495 18.48962,-101.04788 27.73442,-151.57182 -4.08499,-0.215 -8.16983,-0.42999 -12.25474,-0.64499 -15.90998,-10.31998 -31.81933,-20.63956 -47.729,-30.95935 -3.65499,-7.95499 -7.30985,-15.90966 -10.96477,-23.86449 -20.63998,5.37499 -41.27913,10.74977 -61.9187,16.12466 -13.54499,-54.17995 -27.08943,-108.35773 -40.63415,-162.53659 0,-0.215 0,-0.42999 0,-0.64499 37.83997,-12.46999 75.67842,-24.93947 113.51762,-37.40921 1.29,-0.86 2.57995,-1.71997 3.86992,-2.57995 6.66499,23.21998 13.32972,46.43903 19.99458,69.65854 1.935,-4.515 3.86992,-9.02981 5.80488,-13.54472 3.225,4.085 6.44986,8.16983 9.6748,12.25475 1.93499,-5.375 3.86991,-10.74978 5.80487,-16.12466 5.16,4.72999 10.31979,9.4598 15.47968,14.1897 1.935,17.62998 3.86992,35.25926 5.80488,52.88889 5.58999,5.37499 11.17976,10.74977 16.76964,16.12466 1.075,3.01 2.14996,6.01987 3.22494,9.02981 z"
     transform="translate(-747.86575,-621.75309)" />
  <path
     style="display:none;fill:#f9d09c;fill-opacity:1;fill-rule:evenodd;stroke:#72864f;stroke-width:0;stroke-linecap:round;stroke-linejoin:round;stroke-dasharray:none;stroke-opacity:1"
     d="m 167.95201,714.31017 c -2.10426,-4.59251 -2.42136,-9.85987 -1.62115,-14.84773 0.80021,-4.98786 2.66319,-9.74359 4.7749,-14.33268 2.11171,-4.58909 4.48583,-9.06021 6.39206,-13.73839 1.90623,-4.67818 3.3474,-9.61482 3.47904,-14.66474 0.16196,-6.21284 -1.65475,-12.30706 -2.05656,-18.50901 -0.4723,-7.29003 1.06836,-14.71987 4.53163,-21.15208 3.46328,-6.4322 8.85447,-11.8343 15.34841,-15.18039 1.93821,-0.99869 4.0016,-1.82512 6.16966,-2.05655 3.53127,-0.37695 7.08532,0.86747 10.06671,2.79704 2.9814,1.92957 5.47317,4.51345 7.9094,7.09739 2.43623,2.58394 4.86915,5.21267 7.77004,7.26127 2.9009,2.0486 6.35063,3.5001 9.90081,3.40985 3.40926,-0.0867 6.66435,-1.59102 9.37056,-3.66634 2.70621,-2.07533 4.9295,-4.70481 7.08131,-7.35061 2.15181,-2.6458 4.26965,-5.34557 6.81827,-7.61164 2.54862,-2.26608 5.58834,-4.10022 8.94922,-4.67904 3.91919,-0.67498 7.91353,0.39254 11.70341,1.59771 3.78988,1.20518 7.62776,2.57386 11.60422,2.5154 4.47155,-0.0657 8.77349,-1.96661 12.33956,-4.66516 3.56608,-2.69854 6.47231,-6.16591 9.17865,-9.72607 2.70635,-3.56017 5.25366,-7.25411 8.25927,-10.56552 3.00561,-3.3114 6.52621,-6.26177 10.6681,-7.94813 4.04264,-1.64595 8.56646,-2.01611 12.86097,-1.23551 4.29451,0.78061 8.35597,2.68995 11.8177,5.34862 4.63799,3.56206 8.14111,8.36283 11.5987,13.07922 3.45758,4.7164 7.00856,9.49114 11.70892,12.97048 3.19221,2.36297 6.99668,4.10323 10.9683,4.11311 2.98045,0.007 5.87421,-0.94984 8.65661,-2.01819 2.7824,-1.06835 5.54546,-2.26694 8.48135,-2.78044 4.34291,-0.75959 8.82534,0.0287 13.02485,1.37104 11.39141,3.64123 21.21941,11.30908 28.79176,20.56555 1.39784,1.70872 2.72948,3.47743 4.26364,5.06488 1.53417,1.58745 3.29388,3.00239 5.33363,3.84686 1.90165,0.7873 3.99268,1.05334 6.04908,0.96768 2.0564,-0.0856 4.08538,-0.51382 6.06646,-1.07188 3.96216,-1.11612 7.79975,-2.76164 11.8776,-3.32339 4.41442,-0.60811 8.98851,0.10606 13.05128,1.93658 4.06277,1.83052 7.60896,4.76175 10.25634,8.3462 4.02566,5.45058 5.92847,12.51332 4.79863,19.19451 -0.83378,4.93047 -3.22019,9.46573 -5.96135,13.64792 -2.74117,4.18219 -5.86963,8.10923 -8.43453,12.40178 -2.51704,4.21245 -4.46777,8.7376 -6.85518,13.02485 -3.74372,6.72288 -8.53607,12.81346 -13.71037,18.509 -5.57259,6.13394 -11.93524,12.03811 -19.88004,14.39588 -5.10128,1.5139 -10.54964,1.45866 -15.82801,0.78504 -5.27836,-0.67362 -10.46026,-1.94774 -15.70583,-2.84159 -4.81156,-0.8199 -9.68628,-1.32173 -14.42118,-2.5067 -4.73489,-1.18497 -9.39667,-3.11224 -12.99956,-6.40504 -2.04759,-1.87136 -3.70238,-4.13511 -5.71361,-6.0455 -1.00561,-0.9552 -2.105,-1.82376 -3.33304,-2.46839 -1.22805,-0.64464 -2.59143,-1.06051 -3.9782,-1.08337 -1.68624,-0.0278 -3.35096,0.52874 -4.78787,1.41161 -1.43691,0.88288 -2.65909,2.08132 -3.72577,3.38761 -2.13337,2.61256 -3.67918,5.67157 -5.88225,8.22563 -2.66882,3.09402 -6.22718,5.3405 -10.02824,6.83966 -3.80106,1.49916 -7.85022,2.28095 -11.90834,2.75759 -2.95282,0.34682 -5.93845,0.53601 -8.89899,0.2629 -2.96054,-0.27311 -5.90549,-1.02167 -8.50664,-2.4616 -2.60116,-1.43993 -4.84587,-3.60069 -6.13085,-6.28178 -1.28498,-2.68108 -1.54851,-5.8921 -0.45667,-8.65747 0.35478,-0.89858 0.85229,-1.77488 0.89098,-2.74019 0.0193,-0.48266 -0.0856,-0.98042 -0.36054,-1.37761 -0.13745,-0.19859 -0.31616,-0.3697 -0.52537,-0.49039 -0.2092,-0.12069 -0.44907,-0.19006 -0.69059,-0.19044 -0.25732,-4e-4 -0.51182,0.0772 -0.73526,0.20484 -0.22344,0.12763 -0.41677,0.30402 -0.5799,0.50303 -0.32625,0.39802 -0.53046,0.87925 -0.74139,1.34868 -3.77985,8.41194 -10.99464,14.97432 -19.19452,19.19452 -7.77561,4.00184 -16.71192,6.0688 -25.36418,4.79863 -11.46935,-1.68373 -21.4881,-8.95881 -32.90488,-10.9683 -7.14652,-1.25788 -14.50537,-0.38431 -21.6061,1.1106 -7.10072,1.49492 -14.06866,3.60656 -21.21598,4.85987 -7.14733,1.2533 -14.59898,1.6225 -21.58081,-0.35466 -3.49091,-0.98858 -6.83201,-2.56501 -9.70579,-4.77975 -2.87379,-2.21475 -5.27117,-5.07833 -6.78249,-8.37676 z"
     id="path2"
     inkscape:path-effect="#path-effect2"
     inkscape:original-d="m 167.95201,714.31017 c -2.97058,-3.88461 32.21936,-38.61753 13.02485,-57.58354 -19.19452,-18.96601 -2.74208,-17.82349 -2.05656,-18.50901 0.68552,-0.68551 3.88461,-26.04969 19.88004,-36.33247 13.92062,-8.94897 4.11311,-1.59954 6.16966,-2.05655 2.05656,-0.45701 23.53613,13.71037 35.64696,20.56555 12.11082,6.85518 21.25107,-15.30991 32.21936,-23.30763 10.9683,-7.99771 13.93888,-2.97058 23.30763,4.11311 9.36875,7.08369 30.39131,-9.14024 40.44558,-32.90488 8.42641,-19.91697 18.28049,2.74208 24.67867,4.11311 6.39817,1.37104 16.68094,14.8529 23.30762,26.0497 6.62668,11.1968 5.94116,5.25564 10.9683,4.11311 5.02713,-1.14253 11.88231,-2.97058 17.13796,-4.79863 5.25564,-1.82805 8.22622,0.45702 13.02485,1.37104 4.79862,0.91402 20.10853,9.36875 28.79176,20.56555 8.68324,11.1968 5.71266,10.28278 9.59727,8.91174 3.8846,-1.37104 15.76692,-2.28506 23.99314,-3.42759 8.22622,-1.14253 17.82347,7.76921 23.30762,10.28278 5.48415,2.51357 0.91403,11.88231 4.79863,19.19451 3.88461,7.3122 -9.82576,17.36647 -14.39588,26.0497 -4.57013,8.68323 -2.74207,10.73979 -6.85518,13.02485 -4.11311,2.28506 -10.51129,10.51128 -13.71037,18.509 -3.19909,7.99771 -13.71037,10.28277 -19.88004,14.39588 -6.16966,4.11311 -21.02256,-2.74207 -31.53384,-2.05655 -10.51129,0.68551 -18.05199,-5.48415 -27.42074,-8.91174 -9.36875,-3.42759 -8.68323,-6.39817 -13.02485,-9.59726 -4.34162,-3.19909 -9.59726,8.68323 -14.39589,13.02485 -4.79863,4.34162 -12.56783,8.45472 -21.93658,9.59725 -9.36875,1.14254 -18.2805,-13.02484 -23.99315,-17.13795 -5.71265,-4.11311 0,-3.6561 -0.68552,-4.79863 -0.68552,-1.14253 -1.59954,1.37104 -2.05655,2.05655 -0.45701,0.68552 -13.02485,13.02485 -19.19452,19.19452 -6.16966,6.16966 -16.68095,2.97058 -25.36418,4.79863 -8.68323,1.82805 -21.93659,-7.3122 -32.90488,-10.9683 -10.9683,-3.6561 -74.493,1.14254 -80.89117,-7.5407 z"
     sodipodi:nodetypes="csssssssssssssssssssssssssssssssssc"
     transform="translate(-728.30358,-513.81192)" />
  <path
     style="display:none;fill:#f3e98a;fill-opacity:1;fill-rule:evenodd;stroke:#000000;stroke-width:4.91339;stroke-linecap:round;stroke-linejoin:round;stroke-dasharray:none;stroke-opacity:1"
     d="m 183.71364,507.17435 c -4.4074,5.37489 -12.79223,6.44987 -19.02714,9.35236 -6.2349,2.90248 -10.31974,7.63229 -9.5672,12.03974 0.75254,4.40744 6.34231,8.49228 11.71725,10.85723 5.37494,2.36496 10.53473,3.00993 11.82468,6.44992 1.28994,3.43999 -1.28995,9.67474 -1.39743,15.15717 -0.10747,5.48243 2.25743,10.21224 6.87991,12.03969 4.62247,1.82745 11.50218,0.7525 16.98461,-2.68749 5.48243,-3.43999 9.56726,-9.24475 14.72721,-9.67469 5.15996,-0.42994 11.3947,4.51486 17.41463,6.3423 6.01993,1.82745 11.8247,0.5375 15.37213,-2.68748 3.54744,-3.22498 4.83739,-8.38477 3.33238,-13.86721 -1.50502,-5.48245 -5.80484,-11.28721 -4.6223,-16.12465 1.18255,-4.83744 7.84727,-8.70727 11.3947,-12.25473 3.54743,-3.54746 3.97742,-6.77233 2.79491,-10.10479 -1.1825,-3.33247 -3.97739,-6.77233 -10.42736,-8.06229 -6.44996,-1.28996 -16.55454,-0.43 -25.36943,-4.6225 -8.81489,-4.19251 -16.33943,-13.43694 -22.25193,-17.09194 -5.91249,-3.655 -10.21232,-1.72008 -12.57727,4.0849 -2.36496,5.80497 -2.79494,15.47958 -7.20235,20.85446 z"
     id="path7"
     inkscape:path-effect="#path-effect7"
     inkscape:original-d="m 187.69106,511.47426 c -8.38482,1.07498 -16.76965,2.14996 -25.15447,3.22494 -4.085,4.72999 -8.16983,9.4598 -12.25474,14.1897 5.58999,4.08499 11.17976,8.16983 16.76964,12.25474 5.16,0.645 10.31979,1.28997 15.47968,1.93496 -2.58,6.23499 -5.15989,12.46974 -7.73984,18.70461 2.365,4.72999 4.7299,9.4598 7.09485,14.1897 6.88,-1.075 13.75971,-2.14996 20.63957,-3.22493 4.08499,-5.805 8.16983,-11.60976 12.25474,-17.41464 6.235,4.945 12.46974,9.8898 18.70461,14.83469 5.80499,-1.29 11.60976,-2.57994 17.41463,-3.86992 1.29,-5.15999 2.57995,-10.31978 3.86992,-15.47967 -4.29999,-5.805 -8.59982,-11.60976 -12.89973,-17.41464 6.665,-3.86999 13.32972,-7.73983 19.99458,-11.60975 0.43,-3.225 0.85999,-6.44987 1.28998,-9.6748 -2.795,-3.44 -5.58989,-6.87986 -8.38483,-10.31978 -10.10499,0.86 -20.20957,1.71996 -30.31436,2.57994 -7.52499,-9.24499 -15.04953,-18.48942 -22.57453,-27.73442 -4.29999,1.935 -8.59982,3.86992 -12.89973,5.80488 -0.43,9.67499 -0.85998,19.3496 -1.28997,29.02439 z"
     sodipodi:nodetypes="cccccccccccccccccccc"
     transform="translate(-650.55525,-753.69378)" />
  <path
     style="display:none;fill:#edd6b3;fill-opacity:1;fill-rule:evenodd;stroke:#000000;stroke-width:4.91339;stroke-linecap:round;stroke-linejoin:round;stroke-dasharray:none;stroke-opacity:1"
     d="m 180.59621,263.79947 c 5.58988,0.64498 16.33966,0.64498 26.12204,0.53748 9.78238,-0.1075 18.59702,-0.32249 32.24942,-0.85999 13.6524,-0.5375 32.14164,-1.39746 47.94394,-2.47245 15.8023,-1.07499 28.91676,-2.36494 38.37662,-3.43992 9.45986,-1.07499 15.26462,-1.93496 23.86456,-2.25745 8.59993,-0.32249 19.99446,-0.1075 33.21683,-0.1075 13.22238,0 28.27176,-0.21499 43.64409,0.10751 15.37234,0.3225 31.0667,1.18247 46.65403,1.39746 15.58732,0.21499 31.06669,-0.21499 46.97651,-0.85999 15.90983,-0.64499 32.24917,-1.50496 52.02899,-2.47245 19.77981,-0.96749 42.99886,-2.04244 66.00361,-2.79493 23.00474,-0.75249 45.7938,-1.18248 65.25106,-0.96747 19.45725,0.215 35.58127,1.07495 43.75126,1.39745 8.16999,0.3225 8.38498,0.10751 8.59997,-0.10749 2.36495,5.15989 4.72985,10.31968 -7.74013,12.14718 -12.46999,1.8275 -39.77387,0.32256 -59.33857,0.32257 -19.56471,2e-5 -31.38923,1.50496 -48.58909,1.93495 -17.19987,0.42998 -39.77394,-0.21499 -67.50868,-0.32249 -27.73475,-0.10749 -60.62841,0.32249 -84.60056,0.85998 -23.97214,0.5375 -39.02152,1.18247 -55.25385,0.96747 -16.23234,-0.21501 -33.64628,-1.28995 -47.83627,-1.82745 -14.18998,-0.5375 -25.15431,-0.53749 -42.5693,0.75251 -17.41498,1.29 -41.27899,3.86989 -65.78873,5.26736 -24.50974,1.39748 -49.66371,1.61247 -67.18594,2.90246 -17.52223,1.29 -27.41164,3.65486 -31.92663,1.61236 -4.51499,-2.04249 -3.65503,-8.49224 -3.01004,-11.07217 0.64499,-2.57993 1.07498,-1.28998 6.66486,-0.64499 z"
     id="path8"
     inkscape:path-effect="#path-effect8"
     inkscape:original-d="m 175.43632,264.44445 c 10.74977,0 21.49955,0 32.24932,0 8.81499,-0.215 17.62963,-0.42999 26.44445,-0.64499 18.48998,-0.86 36.97922,-1.71996 55.46883,-2.57994 13.11499,-1.29 26.22945,-2.57995 39.34418,-3.86992 5.80499,-0.86 11.60975,-1.71997 17.41463,-2.57995 11.39499,0.215 22.78952,0.42999 34.18428,0.64499 15.04999,-0.215 30.09937,-0.42999 45.14905,-0.64499 15.69499,0.86 31.38935,1.71997 47.08402,2.57995 15.47998,-0.43 30.95935,-0.85998 46.43902,-1.28997 16.33998,-0.86 32.67932,-1.71997 49.01897,-2.57995 23.21998,-1.075 46.43903,-2.14996 69.65854,-3.22493 22.78998,-0.43 45.57904,-0.85999 68.36856,-1.28998 16.12499,0.86 32.24901,1.71995 48.37399,2.57995 0.215,-0.215 0.64498,-0.64499 0.64498,-0.64499 0,0 4.72986,10.31968 7.09485,15.47968 -27.30497,-1.505 -54.60885,-3.00994 -81.91327,-4.51491 -11.82499,1.505 -23.64951,3.00994 -35.47426,4.51491 -22.57498,-0.645 -45.14905,-1.28997 -67.72358,-1.93496 -32.89496,0.43 -65.78862,0.85998 -98.68293,1.28997 -15.04998,0.645 -30.09936,1.28997 -45.14905,1.93496 -17.41498,-1.075 -34.82892,-2.14994 -52.2439,-3.22494 -10.96499,1e-5 -21.92932,1e-5 -32.89431,1e-5 -23.86498,2.58 -47.72899,5.15989 -71.5935,7.73984 -25.15497,0.215 -50.30894,0.42999 -75.46341,0.64498 -9.88999,2.365 -19.7794,4.72986 -29.66938,7.09485 0.86,-6.44998 1.71996,-12.89973 2.57994,-19.34959 0.43,1.29 0.85999,2.57995 1.28998,3.86992 z"
     sodipodi:nodetypes="cccccccccccccccccccccccccccc"
     transform="translate(-785.87277,-416.05286)" />
</svg>
